<?xml version="1.0" encoding="utf-8"?>
<svg width="20px" height="20px" viewBox="0 0 20 20" version="1.1" xmlns:xlink="http://www.w3.org/1999/xlink" xmlns="http://www.w3.org/2000/svg">
  <desc>Created with Lunacy</desc>
  <defs>
    <path d="M2.999 0L17.001 0Q17.1483 0 17.295 0.014441Q17.4416 0.028882 17.5861 0.0576249Q17.7306 0.0863679 17.8716 0.129136Q18.0126 0.171904 18.1487 0.228285Q18.2848 0.284667 18.4147 0.354118Q18.5447 0.42357 18.6672 0.505423Q18.7897 0.587276 18.9035 0.680742Q19.0174 0.774208 19.1216 0.878387Q19.2258 0.982566 19.3193 1.09645Q19.4127 1.21034 19.4946 1.33284Q19.5764 1.45535 19.6459 1.58528Q19.7153 1.71522 19.7717 1.85133Q19.8281 1.98745 19.8709 2.12844Q19.9136 2.26942 19.9424 2.41392Q19.9711 2.55842 19.9856 2.70505Q20 2.85167 20 2.999L20 17.001Q20 17.1483 19.9856 17.295Q19.9711 17.4416 19.9424 17.5861Q19.9136 17.7306 19.8709 17.8716Q19.8281 18.0126 19.7717 18.1487Q19.7153 18.2848 19.6459 18.4147Q19.5764 18.5447 19.4946 18.6672Q19.4127 18.7897 19.3193 18.9035Q19.2258 19.0174 19.1216 19.1216Q19.0174 19.2258 18.9035 19.3193Q18.7897 19.4127 18.6672 19.4946Q18.5447 19.5764 18.4147 19.6459Q18.2848 19.7153 18.1487 19.7717Q18.0126 19.8281 17.8716 19.8709Q17.7306 19.9136 17.5861 19.9424Q17.4416 19.9711 17.295 19.9856Q17.1483 20 17.001 20L2.999 20Q2.85167 20 2.70505 19.9856Q2.55842 19.9711 2.41392 19.9424Q2.26942 19.9136 2.12844 19.8709Q1.98745 19.8281 1.85133 19.7717Q1.71522 19.7153 1.58528 19.6459Q1.45535 19.5764 1.33284 19.4946Q1.21034 19.4127 1.09645 19.3193Q0.982566 19.2258 0.878387 19.1216Q0.774208 19.0174 0.680742 18.9035Q0.587276 18.7897 0.505423 18.6672Q0.42357 18.5447 0.354118 18.4147Q0.284667 18.2848 0.228285 18.1487Q0.171904 18.0126 0.129136 17.8716Q0.0863679 17.7306 0.0576249 17.5861Q0.028882 17.4416 0.014441 17.295Q0 17.1483 0 17.001L0 2.999Q0 2.85167 0.014441 2.70505Q0.028882 2.55842 0.0576249 2.41392Q0.0863679 2.26942 0.129136 2.12844Q0.171904 1.98745 0.228285 1.85133Q0.284667 1.71522 0.354118 1.58528Q0.42357 1.45535 0.505423 1.33284Q0.587276 1.21034 0.680742 1.09645Q0.774208 0.982566 0.878387 0.878387Q0.982566 0.774208 1.09645 0.680742Q1.21034 0.587276 1.33284 0.505423Q1.45535 0.42357 1.58528 0.354118Q1.71522 0.284667 1.85133 0.228285Q1.98745 0.171904 2.12844 0.129136Q2.26942 0.0863679 2.41392 0.0576249Q2.55842 0.028882 2.70505 0.014441Q2.85167 0 2.999 0L2.999 0Z" id="path_1" />
    <clipPath id="clip_1">
      <use xlink:href="#path_1" />
    </clipPath>
    <linearGradient x1="0.5" y1="0" x2="0.5" y2="1" id="gradient_1">
      <stop offset="0" stop-color="#539FB7" />
      <stop offset="1" stop-color="#B2DB9E" />
    </linearGradient>
  </defs>
  <g id="Admin-Icon">
    <g id="Admin-Icon">
      <g id="Rectangle-Copy-5">
        <g clip-path="url(#clip_1)">
          <use xlink:href="#path_1" fill="none" stroke="url(#gradient_1)" stroke-width="4" />
        </g>
      </g>
      <g id="$" fill="url(#gradient_1)" transform="translate(6.557942 3)">
        <path d="M3.75977 12.8274L3.75977 14.1519L3.125 14.1519L3.125 12.8762Q1.82495 12.8762 1.01318 12.3513L1.01318 11.2893Q1.36719 11.6006 1.98059 11.8112Q2.59399 12.0217 3.125 12.0217L3.125 8.89673Q1.78223 8.24976 1.3855 7.70349Q0.988769 7.15723 0.98877 6.4126Q0.98877 5.52759 1.59302 4.88367Q2.19727 4.23975 3.125 4.11157L3.125 3.01294L3.75977 3.01294L3.75977 4.08716Q4.95605 4.12378 5.41382 4.42896L5.41382 5.46655Q4.79126 4.97827 3.75977 4.94165L3.75977 8.16431Q5.0293 8.76855 5.49622 9.33313Q5.96313 9.89771 5.96313 10.6179Q5.96313 11.4846 5.38025 12.0736Q4.79736 12.6626 3.75977 12.8274ZM3.125 7.82251L3.125 4.97827Q2.6123 5.08203 2.31323 5.43298Q2.01416 5.78394 2.01416 6.28442Q2.01416 6.80933 2.2583 7.14502Q2.50244 7.48071 3.125 7.82251ZM3.75977 9.21411L3.75977 11.9729Q4.93774 11.7166 4.93774 10.7034Q4.93774 9.86108 3.75977 9.21411Z" />
      </g>
      <path d="M0 0.5L17.9408 0.5" transform="translate(0.9760839 14.49932)" id="Path-5" fill="none" stroke="#92929D" stroke-width="2" />
    </g>
  </g>
</svg>
