<?xml version="1.0" encoding="utf-8"?>
<svg width="275px" height="126px" viewBox="0 0 275 126" version="1.1" xmlns:xlink="http://www.w3.org/1999/xlink" xmlns="http://www.w3.org/2000/svg">
  <desc>Created with Lunacy</desc>
  <g id="Group" transform="translate(2.5 2.5)">
    <g id="Months" transform="translate(0 108)">
      <g id="Aug">
        <path d="M6.97168 11.3511L5.97266 11.3511L5.15625 9.19189L1.89063 9.19189L1.12256 11.3511L0.118164 11.3511L3.07227 3.64893L4.00684 3.64893L6.97168 11.3511ZM4.86084 8.38086L3.65234 5.09912Q3.59326 4.93799 3.53418 4.5835L3.5127 4.5835Q3.45898 4.91113 3.38916 5.09912L2.19141 8.38086L4.86084 8.38086ZM16.0059 13.9399Q18.9063 13.9399 18.9063 10.9106L18.9063 5.85107L18.0254 5.85107L18.0254 6.61377L18.0039 6.61377Q17.4668 5.72217 16.355 5.72217Q15.1841 5.72217 14.51 6.54932Q13.8359 7.37646 13.8359 8.77832Q13.8359 10.0137 14.4617 10.7468Q15.0874 11.48 16.1133 11.48Q17.3755 11.48 18.0039 10.4272L18.0254 10.4272L18.0254 11.0288Q18.0254 13.188 15.9951 13.188Q15.1519 13.188 14.2227 12.6724L14.2227 13.5532Q14.9854 13.9399 16.0059 13.9399ZM12.4341 11.3511L11.5532 11.3511L11.5532 10.481L11.5317 10.481Q10.9839 11.48 9.83447 11.48Q7.86865 11.48 7.86865 9.13818L7.86865 5.85107L8.74414 5.85107L8.74414 8.99854Q8.74414 10.7388 10.0762 10.7388Q10.7207 10.7388 11.137 10.2634Q11.5532 9.78809 11.5532 9.02002L11.5532 5.85107L12.4341 5.85107L12.4341 11.3511ZM18.0254 8.05322L18.0254 8.86426Q18.0254 9.68604 17.5608 10.2124Q17.0962 10.7388 16.355 10.7388Q15.6245 10.7388 15.1814 10.1882Q14.7383 9.6377 14.7383 8.71924Q14.7383 7.65039 15.2002 7.05688Q15.6621 6.46338 16.4785 6.46338Q17.1392 6.46338 17.5823 6.93066Q18.0254 7.39795 18.0254 8.05322Z" />
      </g>
      <g id="Sep" transform="translate(51.42857 0)">
        <path d="M0.649902 11.0396L0.649902 9.97607Q0.832519 10.1372 1.08765 10.2661Q1.34277 10.395 1.62476 10.4836Q1.90674 10.5723 2.19141 10.6206Q2.47607 10.6689 2.71777 10.6689Q3.55029 10.6689 3.96118 10.3601Q4.37207 10.0513 4.37207 9.47119Q4.37207 9.15967 4.23511 8.92871Q4.09814 8.69775 3.85645 8.50708Q3.61475 8.31641 3.28442 8.14185Q2.9541 7.96729 2.57275 7.77393Q2.16992 7.56982 1.8208 7.36035Q1.47168 7.15088 1.21387 6.89844Q0.956055 6.646 0.80835 6.32642Q0.660644 6.00684 0.660645 5.57715Q0.660644 5.05078 0.891602 4.66138Q1.12256 4.27197 1.49854 4.01953Q1.87451 3.76709 2.35522 3.64355Q2.83594 3.52002 3.33545 3.52002Q4.47412 3.52002 4.99512 3.79395L4.99512 4.80908Q4.31299 4.33643 3.24414 4.33643Q2.94873 4.33643 2.65332 4.39819Q2.35791 4.45996 2.12695 4.59961Q1.896 4.73926 1.75098 4.95947Q1.60596 5.17969 1.60596 5.49658Q1.60596 5.79199 1.71606 6.00684Q1.82617 6.22168 2.04102 6.39893Q2.25586 6.57617 2.5647 6.74268Q2.87354 6.90918 3.27637 7.10791Q3.68994 7.31201 4.06055 7.5376Q4.43115 7.76318 4.71045 8.03711Q4.98975 8.31104 5.15356 8.64404Q5.31738 8.97705 5.31738 9.40674Q5.31738 9.97607 5.09448 10.3708Q4.87158 10.7656 4.49292 11.0127Q4.11426 11.2598 3.62012 11.3699Q3.12598 11.48 2.57813 11.48Q2.39551 11.48 2.12695 11.4504Q1.8584 11.4209 1.5791 11.3645Q1.2998 11.3081 1.05005 11.2249Q0.800293 11.1416 0.649902 11.0396ZM11.1558 8.82129L7.27246 8.82129Q7.29395 9.73975 7.7666 10.2393Q8.23926 10.7388 9.06641 10.7388Q9.99561 10.7388 10.7744 10.1265L10.7744 10.9536Q10.0493 11.48 8.85693 11.48Q7.69141 11.48 7.02539 10.7307Q6.35938 9.98145 6.35938 8.62256Q6.35938 7.33887 7.08716 6.53052Q7.81494 5.72217 8.89453 5.72217Q9.97412 5.72217 10.5649 6.42041Q11.1558 7.11865 11.1558 8.35938L11.1558 8.82129ZM13.3687 10.5562L13.3901 10.5562Q13.9702 11.48 15.0391 11.48Q16.2046 11.48 16.876 10.6501Q17.5474 9.82031 17.5474 8.43994Q17.5474 7.19922 16.9512 6.46069Q16.355 5.72217 15.2915 5.72217Q14.04 5.72217 13.3901 6.81787L13.3687 6.81787L13.3687 5.85107L12.4878 5.85107L12.4878 13.8809L13.3687 13.8809L13.3687 10.5562ZM10.2534 8.07471Q10.248 7.31201 9.8855 6.8877Q9.52295 6.46338 8.87842 6.46338Q8.25537 6.46338 7.82031 6.90918Q7.38525 7.35498 7.2832 8.07471L10.2534 8.07471ZM13.3687 9.10596L13.3687 8.33789Q13.3687 7.53223 13.8359 6.9978Q14.3032 6.46338 15.0713 6.46338Q15.7964 6.46338 16.2207 6.98438Q16.645 7.50537 16.645 8.42383Q16.645 9.51416 16.1912 10.1265Q15.7373 10.7388 14.937 10.7388Q14.2549 10.7388 13.8118 10.2634Q13.3687 9.78809 13.3687 9.10596Z" />
      </g>
      <g id="Oct" transform="translate(100.4464 0)">
        <path d="M4.11426 11.48Q2.47607 11.48 1.49048 10.4004Q0.504883 9.3208 0.504883 7.59131Q0.504883 5.73291 1.50928 4.62646Q2.51367 3.52002 4.24316 3.52002Q5.83838 3.52002 6.81323 4.59424Q7.78809 5.66846 7.78809 7.40332Q7.78809 9.28857 6.78906 10.3843Q5.79004 11.48 4.11426 11.48ZM15.9951 11.4692Q16.5054 11.4692 16.8169 11.2974L16.8169 10.5454Q16.5752 10.728 16.2422 10.728Q15.8071 10.728 15.6191 10.4917Q15.4312 10.2554 15.4312 9.70215L15.4312 6.60303L16.8169 6.60303L16.8169 5.85107L15.4312 5.85107L15.4312 4.22363L14.5503 4.5083L14.5503 5.85107L13.605 5.85107L13.605 6.60303L14.5503 6.60303L14.5503 9.85791Q14.5503 11.4692 15.9951 11.4692ZM4.17871 4.33643Q2.96484 4.33643 2.20752 5.21191Q1.4502 6.0874 1.4502 7.51074Q1.4502 8.93408 2.18872 9.80151Q2.92725 10.6689 4.11426 10.6689Q5.38184 10.6689 6.1123 9.8418Q6.84277 9.01465 6.84277 7.52686Q6.84277 6.00147 6.13379 5.16895Q5.4248 4.33643 4.17871 4.33643ZM12.9336 11.0986Q12.2998 11.48 11.4297 11.48Q10.2534 11.48 9.53101 10.7146Q8.80859 9.94922 8.80859 8.72998Q8.80859 7.37109 9.5874 6.54663Q10.3662 5.72217 11.666 5.72217Q12.3911 5.72217 12.9443 5.99072L12.9443 6.89307Q12.332 6.46338 11.6338 6.46338Q10.7905 6.46338 10.2507 7.06763Q9.71094 7.67188 9.71094 8.65479Q9.71094 9.62158 10.2185 10.1802Q10.7261 10.7388 11.5801 10.7388Q12.2998 10.7388 12.9336 10.2607L12.9336 11.0986Z" />
      </g>
      <g id="Nov" transform="translate(147.8571 0)">
        <path d="M7.21875 11.3511L6.1123 11.3511L2.14844 5.21191Q1.99805 4.98096 1.90137 4.72852L1.86914 4.72852Q1.91211 4.97559 1.91211 5.78662L1.91211 11.3511L1.00977 11.3511L1.00977 3.64893L2.18066 3.64893L6.03711 9.69141Q6.27881 10.0674 6.34863 10.207L6.37012 10.207Q6.31641 9.87402 6.31641 9.07373L6.31641 3.64893L7.21875 3.64893L7.21875 11.3511ZM11.4189 11.48Q10.1997 11.48 9.47192 10.7092Q8.74414 9.93848 8.74414 8.66553Q8.74414 7.27979 9.50146 6.50098Q10.2588 5.72217 11.5479 5.72217Q12.7778 5.72217 13.468 6.47949Q14.1582 7.23682 14.1582 8.57959Q14.1582 9.89551 13.4143 10.6877Q12.6704 11.48 11.4189 11.48ZM17.6978 11.3511L19.8892 5.85107L18.96 5.85107L17.499 9.86865Q17.3809 10.2017 17.3271 10.6152L17.3057 10.6152Q17.2681 10.2876 17.1123 9.84717L15.7158 5.85107L14.749 5.85107L16.833 11.3511L17.6978 11.3511ZM11.4834 6.46338Q10.6348 6.46338 10.1406 7.04077Q9.64648 7.61816 9.64648 8.6333Q9.64648 9.61084 10.146 10.1748Q10.6455 10.7388 11.4834 10.7388Q12.3374 10.7388 12.7966 10.1855Q13.2559 9.63232 13.2559 8.61182Q13.2559 7.58057 12.7966 7.02197Q12.3374 6.46338 11.4834 6.46338Z" />
      </g>
      <g id="Dec" transform="translate(200.0893 0)">
        <path d="M1.00977 11.3511L1.00977 3.64893L3.13672 3.64893Q7.20801 3.64893 7.20801 7.40332Q7.20801 9.18652 6.07739 10.2688Q4.94678 11.3511 3.05078 11.3511L1.00977 11.3511ZM1.91211 4.46533L1.91211 10.5347L3.06152 10.5347Q4.57617 10.5347 5.41943 9.72363Q6.2627 8.9126 6.2627 7.4248Q6.2627 4.46533 3.11523 4.46533L1.91211 4.46533ZM13.0249 8.82129L9.1416 8.82129Q9.16309 9.73975 9.63574 10.2393Q10.1084 10.7388 10.9355 10.7388Q11.8647 10.7388 12.6436 10.1265L12.6436 10.9536Q11.9185 11.48 10.7261 11.48Q9.56055 11.48 8.89453 10.7307Q8.22852 9.98145 8.22852 8.62256Q8.22852 7.33887 8.9563 6.53052Q9.68408 5.72217 10.7637 5.72217Q11.8433 5.72217 12.4341 6.42041Q13.0249 7.11865 13.0249 8.35938L13.0249 8.82129ZM16.6021 11.48Q17.4722 11.48 18.106 11.0986L18.106 10.2607Q17.4722 10.7388 16.7524 10.7388Q15.8984 10.7388 15.3909 10.1802Q14.8833 9.62158 14.8833 8.65479Q14.8833 7.67188 15.4231 7.06763Q15.9629 6.46338 16.8062 6.46338Q17.5044 6.46338 18.1167 6.89307L18.1167 5.99072Q17.5635 5.72217 16.8384 5.72217Q15.5386 5.72217 14.7598 6.54663Q13.981 7.37109 13.981 8.72998Q13.981 9.94922 14.7034 10.7146Q15.4258 11.48 16.6021 11.48ZM12.1226 8.07471Q12.1172 7.31201 11.7546 6.8877Q11.3921 6.46338 10.7476 6.46338Q10.1245 6.46338 9.68945 6.90918Q9.25439 7.35498 9.15234 8.07471L12.1226 8.07471Z" />
      </g>
      <g id="Jan" transform="translate(251.5179 0)">
        <path d="M2.98096 8.59033Q2.98096 9.95996 2.40088 10.72Q1.8208 11.48 0.848633 11.48Q0.397461 11.48 0.107422 11.3511L0.107422 10.4595Q0.397461 10.6689 0.859375 10.6689Q2.07861 10.6689 2.07861 8.60107L2.07861 3.64893L2.98096 3.64893L2.98096 8.59033ZM8.75488 11.3511L7.87402 11.3511L7.87402 10.4917L7.85254 10.4917Q7.27783 11.48 6.16064 11.48Q5.33887 11.48 4.87427 11.0449Q4.40967 10.6099 4.40967 9.89014Q4.40967 8.34863 6.2251 8.09619L7.87402 7.86523Q7.87402 6.46338 6.74072 6.46338Q5.74707 6.46338 4.94678 7.14014L4.94678 6.23779Q5.75781 5.72217 6.81592 5.72217Q8.75488 5.72217 8.75488 7.77393L8.75488 11.3511ZM14.0991 11.3511L14.98 11.3511L14.98 7.98877Q14.98 6.8877 14.502 6.30493Q14.0239 5.72217 13.1216 5.72217Q11.9399 5.72217 11.3169 6.76416L11.2954 6.76416L11.2954 5.85107L10.4146 5.85107L10.4146 11.3511L11.2954 11.3511L11.2954 8.21436Q11.2954 7.45703 11.7278 6.96021Q12.1602 6.46338 12.8208 6.46338Q14.0991 6.46338 14.0991 8.21436L14.0991 11.3511ZM7.87402 8.56885L6.54736 8.75146Q5.93506 8.8374 5.62354 9.05493Q5.31201 9.27246 5.31201 9.82568Q5.31201 10.2285 5.59937 10.4836Q5.88672 10.7388 6.36475 10.7388Q7.02002 10.7388 7.44702 10.2795Q7.87402 9.82031 7.87402 9.1167L7.87402 8.56885Z" />
      </g>
    </g>
    <g id="graph-bars" transform="translate(4 0)">
      <path d="M0.5 0L0.5 70" transform="translate(0 21)" id="Line" fill="none" stroke="#F1B674" stroke-width="5" stroke-linecap="round" />
      <path d="M0.5 0.4L0.5 36" transform="translate(44 55)" id="Line-Copy" fill="none" stroke="#F1B674" stroke-width="5" stroke-linecap="round" />
      <path d="M0.5 0L0.5 82" transform="translate(87 9)" id="Line-Copy-2" fill="none" stroke="#F1B674" stroke-width="5" stroke-linecap="round" />
      <path d="M0.5 0L0.5 53" transform="translate(131 38)" id="Line-Copy-3" fill="none" stroke="#F1B674" stroke-width="5" stroke-linecap="round" />
      <path d="M0.5 0L0.5 63" transform="translate(174 28)" id="Line-Copy-4" fill="none" stroke="#F1B674" stroke-width="5" stroke-linecap="round" />
      <path d="M0.5 0L0.5 38" transform="translate(217 53)" id="Line-Copy-5" fill="none" stroke="#F1B674" stroke-width="5" stroke-linecap="round" />
      <path d="M0.5 0L0.5 91" transform="translate(261 0)" id="Line-Copy-6" fill="none" stroke="#F1B674" stroke-width="5" stroke-linecap="round" />
    </g>
  </g>
</svg>