<?xml version="1.0" encoding="utf-8"?>
<svg width="32px" height="23px" viewBox="0 0 32 23" version="1.1" xmlns:xlink="http://www.w3.org/1999/xlink" xmlns="http://www.w3.org/2000/svg">
  <desc>Created with Lunacy</desc>
  <g id="Chat-Icon" transform="translate(1 1)">
    <path d="M10.1823 19.5783C11.722 19.5783 14.4901 18.6617 14.4901 18.6617L20.3647 19.6406L19.3262 14.101C19.3262 14.101 20.3647 11.3365 20.3647 9.78914C20.3647 4.38275 15.8059 0 10.1823 0C4.55878 0 0 4.38275 0 9.78914C0 15.1955 4.55878 19.5783 10.1823 19.5783Z" transform="translate(0 0.8925781)" id="Oval" fill="#27A469" fill-opacity="0.5019608" stroke="none" />
    <path d="M1.85133 3.57101C2.8738 3.57101 3.70266 2.77162 3.70266 1.78551C3.70266 0.799399 2.8738 0 1.85133 0C0.82887 0 0 0.799399 0 1.78551C0 2.77162 0.82887 3.57101 1.85133 3.57101Z" transform="translate(6.479492 8.927246)" id="dot-1" fill="#27A469" stroke="none" />
    <path d="M1.85133 3.57101C2.8738 3.57101 3.70267 2.77162 3.70267 1.78551C3.70267 0.799399 2.8738 0 1.85133 0C0.82887 0 0 0.799399 0 1.78551C0 2.77162 0.82887 3.57101 1.85133 3.57101Z" transform="translate(11.10791 8.927246)" id="dot-2" fill="#27A469" stroke="none" />
  </g>
</svg>