<?xml version="1.0" encoding="utf-8"?>
<svg width="25px" height="28px" viewBox="0 0 25 28" version="1.1" xmlns:xlink="http://www.w3.org/1999/xlink" xmlns="http://www.w3.org/2000/svg">
  <desc>Created with Lunacy</desc>
  <g id="Contact-Icon" transform="translate(0.5 0.5)">
    <path d="M5.63353 0.587698C5.01851 0.869083 4.27448 1.06165 3.4753 2.187C3.06974 2.75808 2.6193 3.18656 2.17337 3.54007C0.977929 4.48774 0.613999 6.30455 1.39836 7.61296L8.4265 19.1936C9.47192 20.9295 11.9329 22.741 13.9452 22.5018C14.0816 22.4856 14.217 22.4624 14.3507 22.4309C15.3372 22.1984 16.037 21.538 16.7165 21.0913C17.1776 20.7882 17.3523 20.3224 17.0609 19.8539L15.9455 18.0162L14.7587 15.6983Q14.7347 15.6515 14.706 15.6075Q14.6772 15.5634 14.644 15.5227Q14.6108 15.4819 14.5735 15.4448Q14.5362 15.4078 14.4952 15.3748Q14.4542 15.3419 14.4099 15.3134Q14.3657 15.285 14.3187 15.2613Q14.2717 15.2377 14.2225 15.2191Q14.1733 15.2005 14.1224 15.1872Q14.0716 15.1739 14.0196 15.166Q13.9676 15.1581 13.915 15.1557Q13.8625 15.1533 13.81 15.1564Q13.7575 15.1595 13.7056 15.1682Q13.6537 15.1768 13.603 15.1908Q13.5523 15.2049 13.5034 15.2241Q13.4545 15.2434 13.4078 15.2677Q13.3612 15.292 13.3173 15.3211L12.428 15.9109Q12.3849 15.9395 12.3389 15.9635Q12.293 15.9875 12.2449 16.0067Q12.1967 16.0258 12.1469 16.0399Q12.097 16.0539 12.046 16.0627Q11.9949 16.0716 11.9432 16.0751Q11.8915 16.0785 11.8397 16.0767Q11.788 16.0748 11.7367 16.0676Q11.6854 16.0604 11.6351 16.0479Q11.5848 16.0354 11.5361 16.0177Q11.4873 16.0001 11.4407 15.9776Q11.3941 15.955 11.35 15.9277Q11.306 15.9004 11.265 15.8688Q11.224 15.8371 11.1865 15.8013Q11.149 15.7656 11.1154 15.7261Q11.0818 15.6867 11.0525 15.644Q11.0231 15.6013 10.9984 15.5558L7.17282 8.52458Q7.14843 8.47974 7.12873 8.43265Q7.10903 8.38555 7.09423 8.33669Q7.07944 8.28784 7.0697 8.23773Q7.05996 8.18761 7.05538 8.13677Q7.0508 8.08593 7.05142 8.03488Q7.05205 7.98384 7.05788 7.93312Q7.0637 7.88241 7.07467 7.83255Q7.08563 7.78269 7.10162 7.73421Q7.11761 7.68573 7.13846 7.63913Q7.15931 7.59254 7.1848 7.54831Q7.21029 7.50408 7.24016 7.46268Q7.27002 7.42128 7.30395 7.38314Q7.33788 7.345 7.37553 7.31051Q7.41317 7.27603 7.45413 7.24556Q7.49509 7.2151 7.53894 7.18896Q7.58279 7.16283 7.62908 7.1413L8.20729 6.8724Q8.28149 6.83789 8.35182 6.79604Q8.42215 6.75418 8.48787 6.70542Q8.55359 6.65665 8.61404 6.60148Q8.67448 6.5463 8.72902 6.48528Q8.78356 6.42427 8.83163 6.35803Q8.8797 6.2918 8.92082 6.22104Q8.96193 6.15028 8.99566 6.07572Q9.02939 6.00115 9.05539 5.92355Q9.08139 5.84595 9.09939 5.76612Q9.11739 5.68628 9.12721 5.60503Q9.13702 5.52379 9.13855 5.44196Q9.14008 5.36014 9.13332 5.27858Q9.12655 5.19702 9.11154 5.11657Q9.09654 5.03612 9.07347 4.9576Q9.05039 4.87908 9.01947 4.80331Q8.98856 4.72753 8.95012 4.65528L7.83174 2.55304L6.8868 0.886583C6.6021 0.413982 6.13524 0.358152 5.63353 0.587698Z" transform="matrix(0.9702957 -0.2419219 0.2419219 0.9702957 0.690182 4.672962)" id="Path-18" fill="none" stroke="#27A469" stroke-width="1" />
  </g>
</svg>