<?xml version="1.0" encoding="utf-8"?>
<svg width="80px" height="75px" viewBox="0 0 80 75" version="1.1" xmlns:xlink="http://www.w3.org/1999/xlink" xmlns="http://www.w3.org/2000/svg">
  <desc>Created with Lunacy</desc>
  <g id="Contract-Icon" transform="translate(1 1)">
    <path d="M7.999 0L53.001 0Q53.1974 0 53.3935 0.00963514Q53.5896 0.0192703 53.785 0.0385174Q53.9805 0.0577644 54.1747 0.0865771Q54.3689 0.11539 54.5615 0.153699Q54.7541 0.192007 54.9446 0.23972Q55.1351 0.287433 55.323 0.344434Q55.5109 0.401436 55.6958 0.467589Q55.8807 0.533742 56.0621 0.608888Q56.2435 0.684033 56.421 0.76799Q56.5985 0.851946 56.7717 0.944512Q56.9449 1.03708 57.1133 1.13803Q57.2817 1.23898 57.445 1.34807Q57.6083 1.45717 57.766 1.57414Q57.9237 1.69112 58.0755 1.81569Q58.2273 1.94026 58.3728 2.07213Q58.5183 2.204 58.6571 2.34285Q58.796 2.4817 58.9279 2.6272Q59.0597 2.7727 59.1843 2.92449Q59.3089 3.07628 59.4258 3.234Q59.5428 3.39172 59.6519 3.55499Q59.761 3.71826 59.862 3.88669Q59.9629 4.05512 60.0555 4.2283Q60.1481 4.40148 60.232 4.57899Q60.316 4.7565 60.3911 4.93791Q60.4663 5.11933 60.5324 5.30422Q60.5986 5.4891 60.6556 5.67701Q60.7126 5.86492 60.7603 6.0554Q60.808 6.24588 60.8463 6.43847Q60.8846 6.63106 60.9134 6.8253Q60.9422 7.01954 60.9615 7.21496Q60.9807 7.41038 60.9904 7.60651Q61 7.80264 61 7.999L61 65.001Q61 65.1974 60.9904 65.3935Q60.9807 65.5896 60.9615 65.785Q60.9422 65.9805 60.9134 66.1747Q60.8846 66.3689 60.8463 66.5615Q60.808 66.7541 60.7603 66.9446Q60.7126 67.1351 60.6556 67.323Q60.5986 67.5109 60.5324 67.6958Q60.4663 67.8807 60.3911 68.0621Q60.316 68.2435 60.232 68.421Q60.148 68.5985 60.0555 68.7717Q59.9629 68.9449 59.862 69.1133Q59.761 69.2817 59.6519 69.445Q59.5428 69.6083 59.4259 69.766Q59.3089 69.9237 59.1843 70.0755Q59.0597 70.2273 58.9279 70.3728Q58.796 70.5183 58.6571 70.6571Q58.5183 70.796 58.3728 70.9279Q58.2273 71.0597 58.0755 71.1843Q57.9237 71.3089 57.766 71.4258Q57.6083 71.5428 57.445 71.6519Q57.2817 71.761 57.1133 71.862Q56.9449 71.9629 56.7717 72.0555Q56.5985 72.148 56.421 72.232Q56.2435 72.3159 56.0621 72.3911Q55.8807 72.4662 55.6958 72.5324Q55.5109 72.5986 55.323 72.6556Q55.1351 72.7126 54.9446 72.7603Q54.7541 72.808 54.5615 72.8463Q54.3689 72.8846 54.1747 72.9134Q53.9805 72.9422 53.785 72.9615Q53.5896 72.9807 53.3935 72.9904Q53.1974 73 53.001 73L7.999 73Q7.80264 73 7.60651 72.9904Q7.41038 72.9807 7.21496 72.9615Q7.01954 72.9422 6.8253 72.9134Q6.63106 72.8846 6.43847 72.8463Q6.24588 72.808 6.0554 72.7603Q5.86492 72.7126 5.67701 72.6556Q5.4891 72.5986 5.30422 72.5324Q5.11933 72.4662 4.93791 72.3911Q4.7565 72.3159 4.57899 72.232Q4.40148 72.148 4.2283 72.0555Q4.05512 71.9629 3.88669 71.862Q3.71826 71.761 3.55499 71.6519Q3.39172 71.5428 3.234 71.4258Q3.07628 71.3089 2.92449 71.1843Q2.7727 71.0597 2.6272 70.9279Q2.4817 70.796 2.34285 70.6571Q2.204 70.5183 2.07213 70.3728Q1.94026 70.2273 1.81569 70.0755Q1.69112 69.9237 1.57414 69.766Q1.45717 69.6083 1.34807 69.445Q1.23898 69.2817 1.13803 69.1133Q1.03708 68.9449 0.944512 68.7717Q0.851946 68.5985 0.76799 68.421Q0.684033 68.2435 0.608888 68.0621Q0.533742 67.8807 0.467589 67.6958Q0.401436 67.5109 0.344434 67.323Q0.287433 67.1351 0.23972 66.9446Q0.192007 66.7541 0.153699 66.5615Q0.11539 66.3689 0.0865771 66.1747Q0.0577644 65.9805 0.0385174 65.785Q0.0192703 65.5896 0.00963514 65.3935Q0 65.1974 0 65.001L0 7.999Q0 7.80264 0.00963514 7.60651Q0.0192703 7.41038 0.0385174 7.21496Q0.0577644 7.01954 0.0865771 6.8253Q0.11539 6.63106 0.153699 6.43847Q0.192007 6.24588 0.23972 6.0554Q0.287433 5.86492 0.344434 5.67701Q0.401436 5.4891 0.467589 5.30422Q0.533742 5.11933 0.608888 4.93791Q0.684033 4.7565 0.76799 4.57899Q0.851946 4.40148 0.944512 4.2283Q1.03708 4.05512 1.13803 3.88669Q1.23898 3.71826 1.34807 3.55499Q1.45717 3.39172 1.57414 3.234Q1.69112 3.07628 1.81569 2.92449Q1.94026 2.7727 2.07213 2.6272Q2.204 2.4817 2.34285 2.34285Q2.4817 2.204 2.6272 2.07213Q2.7727 1.94026 2.92449 1.81569Q3.07628 1.69112 3.234 1.57414Q3.39172 1.45717 3.55499 1.34807Q3.71826 1.23898 3.88669 1.13803Q4.05512 1.03708 4.2283 0.944512Q4.40148 0.851946 4.57899 0.76799Q4.7565 0.684033 4.93791 0.608888Q5.11933 0.533742 5.30422 0.467589Q5.4891 0.401436 5.67701 0.344434Q5.86492 0.287433 6.0554 0.23972Q6.24588 0.192007 6.43847 0.153699Q6.63106 0.11539 6.8253 0.0865771Q7.01954 0.0577644 7.21496 0.0385174Q7.41038 0.0192703 7.60651 0.00963514Q7.80264 0 7.999 0Z" id="Rectangle" fill="none" stroke="#000000" stroke-width="2" />
    <path d="M0 10C0 10 11.4981 -6.52212 11.4981 4.2538C10.9745 11.3252 17.1451 4.2538 17.1451 4.2538C17.1451 4.2538 20.9101 0.771532 21.7796 4.2538C21.7796 7.59803 20.0146 8.65912 25 6.81352" transform="translate(14 43)" id="Path-27" fill="none" stroke="#000000" stroke-width="2" stroke-linecap="round" />
    <path d="M0.448718 0.5L34.5513 0.5" transform="translate(12 21)" id="Line-8" fill="none" stroke="#000000" stroke-width="2" stroke-linecap="round" />
    <path d="M0.448718 0.5L34.5513 0.5" transform="translate(12 27)" id="Line-8-Copy" fill="none" stroke="#000000" stroke-width="2" stroke-linecap="round" />
    <path d="M0.467742 0.5L29 0.5" transform="translate(12 33)" id="Line-8-Copy-2" fill="none" stroke="#000000" stroke-width="2" stroke-linecap="round" />
    <path d="M22.8139 1.33223L21.4541 2.66582L2.23276 21.5166Q2.01717 21.7281 1.87365 21.9937Q1.73013 22.2594 1.67149 22.5557L0.328416 29.3409Q0.315823 29.4045 0.311561 29.4692Q0.3073 29.5339 0.311441 29.5986Q0.315583 29.6633 0.328058 29.727Q0.340534 29.7906 0.361133 29.8521Q0.381733 29.9136 0.410111 29.9719Q0.438489 30.0303 0.47417 30.0844Q0.50985 30.1386 0.552233 30.1877Q0.594617 30.2368 0.642991 30.28Q0.691366 30.3232 0.74492 30.3597Q0.798475 30.3963 0.856309 30.4257Q0.914144 30.455 0.975288 30.4767Q1.03643 30.4983 1.09986 30.5118Q1.16329 30.5254 1.22793 30.5306Q1.29258 30.5358 1.35735 30.5326Q1.42213 30.5294 1.48595 30.5179Q1.54978 30.5064 1.61158 30.4867L8.13244 28.4098Q8.57607 28.2685 8.91161 27.9458L29.517 8.12477Q29.5891 8.05543 29.6539 7.97924Q29.7187 7.90305 29.7755 7.82078Q29.8324 7.7385 29.8808 7.65096Q29.9292 7.56342 29.9686 7.47149Q30.008 7.37955 30.038 7.28415Q30.068 7.18874 30.0884 7.09081Q30.1087 6.99289 30.1192 6.89342Q30.1296 6.79395 30.1301 6.69393Q30.1306 6.59391 30.1211 6.49435Q30.1116 6.39478 30.0923 6.29666Q30.0729 6.19854 30.0438 6.10284Q30.0147 6.00714 29.9762 5.91483Q29.9377 5.82251 29.8902 5.7345Q29.8427 5.64648 29.7866 5.56365Q29.7306 5.48082 29.6665 5.404Q29.6025 5.32718 29.5311 5.25714L25.5305 1.33244Q25.4633 1.26653 25.3901 1.20743Q25.3168 1.14833 25.2382 1.0966Q25.1596 1.04487 25.0763 1.001Q24.993 0.957128 24.9059 0.921522Q24.8188 0.885917 24.7286 0.858914Q24.6385 0.831911 24.5461 0.813765Q24.4537 0.795618 24.3601 0.786498Q24.2664 0.777378 24.1723 0.77737Q24.0781 0.777363 23.9845 0.786468Q23.8908 0.795572 23.7984 0.813704Q23.7061 0.831836 23.6159 0.858824Q23.5257 0.885813 23.4386 0.921404Q23.3515 0.956995 23.2682 1.00086Q23.1849 1.04472 23.1063 1.09643Q23.0276 1.14815 22.9544 1.20724Q22.8811 1.26632 22.8139 1.33222L22.8139 1.33223Z" transform="translate(47 23)" id="Path-28" fill="#000000" stroke="none" />
  </g>
</svg>