<?xml version="1.0" encoding="utf-8"?>
<svg width="62px" height="58px" viewBox="0 0 62 58" version="1.1" xmlns:xlink="http://www.w3.org/1999/xlink" xmlns="http://www.w3.org/2000/svg">
  <desc>Created with Lunacy</desc>
  <g id="Contract-Icon">
    <g id="Contract-Icon">
      <path d="M9.999 0L38.001 0Q38.2465 0 38.4916 0.0120442Q38.7368 0.0240885 38.9811 0.0481479Q39.2253 0.0722074 39.4682 0.108224Q39.711 0.144241 39.9517 0.192128Q40.1924 0.240015 40.4305 0.299657Q40.6687 0.3593 40.9035 0.430553Q41.1384 0.501807 41.3696 0.584501Q41.6007 0.667194 41.8274 0.761128Q42.0542 0.855062 42.2761 0.960011Q42.498 1.06496 42.7145 1.18067Q42.931 1.29638 43.1415 1.42257Q43.352 1.54876 43.5561 1.68514Q43.7602 1.82151 43.9574 1.96773Q44.1545 2.11395 44.3443 2.26967Q44.534 2.42539 44.7159 2.59023Q44.8978 2.75507 45.0714 2.92864Q45.2449 3.10221 45.4098 3.28408Q45.5746 3.46596 45.7303 3.6557Q45.886 3.84545 46.0323 4.0426Q46.1785 4.23976 46.3149 4.44385Q46.4512 4.64795 46.5774 4.85849Q46.7036 5.06903 46.8193 5.2855Q46.935 5.50198 47.04 5.72388Q47.1449 5.94577 47.2389 6.17255Q47.3328 6.39932 47.4155 6.63044Q47.4982 6.86155 47.5694 7.09644Q47.6407 7.33134 47.7003 7.56944Q47.76 7.80755 47.8079 8.04829Q47.8557 8.28904 47.8918 8.53184Q47.9278 8.77465 47.9518 9.01893Q47.9759 9.26321 47.988 9.50837Q48 9.75354 48 9.999L48 48.001Q48 48.2465 47.988 48.4916Q47.9759 48.7368 47.9518 48.9811Q47.9278 49.2253 47.8918 49.4682Q47.8557 49.711 47.8079 49.9517Q47.76 50.1924 47.7003 50.4306Q47.6407 50.6687 47.5694 50.9035Q47.4982 51.1384 47.4155 51.3695Q47.3328 51.6007 47.2389 51.8274Q47.1449 52.0542 47.04 52.2761Q46.935 52.498 46.8193 52.7145Q46.7036 52.931 46.5774 53.1415Q46.4512 53.352 46.3149 53.5561Q46.1785 53.7602 46.0323 53.9574Q45.886 54.1546 45.7303 54.3443Q45.5746 54.534 45.4098 54.7159Q45.2449 54.8978 45.0714 55.0714Q44.8978 55.2449 44.7159 55.4098Q44.534 55.5746 44.3443 55.7303Q44.1545 55.886 43.9574 56.0323Q43.7602 56.1785 43.5561 56.3149Q43.352 56.4512 43.1415 56.5774Q42.931 56.7036 42.7145 56.8193Q42.498 56.935 42.2761 57.04Q42.0542 57.1449 41.8274 57.2389Q41.6007 57.3328 41.3696 57.4155Q41.1384 57.4982 40.9036 57.5694Q40.6687 57.6407 40.4306 57.7003Q40.1924 57.76 39.9517 57.8079Q39.711 57.8558 39.4682 57.8918Q39.2253 57.9278 38.9811 57.9519Q38.7368 57.9759 38.4916 57.988Q38.2465 58 38.001 58L9.999 58Q9.75354 58 9.50837 57.988Q9.26321 57.9759 9.01893 57.9519Q8.77465 57.9278 8.53184 57.8918Q8.28904 57.8558 8.04829 57.8079Q7.80755 57.76 7.56944 57.7003Q7.33134 57.6407 7.09644 57.5694Q6.86155 57.4982 6.63044 57.4155Q6.39932 57.3328 6.17255 57.2389Q5.94577 57.1449 5.72388 57.04Q5.50198 56.935 5.2855 56.8193Q5.06903 56.7036 4.85849 56.5774Q4.64795 56.4512 4.44385 56.3149Q4.23976 56.1785 4.0426 56.0323Q3.84545 55.886 3.6557 55.7303Q3.46596 55.5746 3.28408 55.4098Q3.10221 55.2449 2.92864 55.0714Q2.75507 54.8978 2.59023 54.7159Q2.42539 54.534 2.26967 54.3443Q2.11395 54.1546 1.96773 53.9574Q1.82151 53.7602 1.68514 53.5561Q1.54876 53.352 1.42257 53.1415Q1.29638 52.931 1.18067 52.7145Q1.06496 52.498 0.960011 52.2761Q0.855062 52.0542 0.761128 51.8274Q0.667194 51.6007 0.584501 51.3696Q0.501807 51.1384 0.430553 50.9035Q0.3593 50.6687 0.299657 50.4306Q0.240015 50.1925 0.192128 49.9517Q0.144241 49.711 0.108224 49.4682Q0.0722074 49.2254 0.0481479 48.9811Q0.0240885 48.7368 0.0120442 48.4916Q0 48.2465 0 48.001L0 9.999Q0 9.75354 0.0120442 9.50837Q0.0240885 9.26321 0.0481479 9.01893Q0.0722074 8.77465 0.108224 8.53184Q0.144241 8.28904 0.192128 8.04829Q0.240015 7.80755 0.299657 7.56944Q0.3593 7.33134 0.430553 7.09644Q0.501807 6.86155 0.584501 6.63044Q0.667194 6.39932 0.761128 6.17255Q0.855062 5.94577 0.960011 5.72388Q1.06496 5.50198 1.18067 5.2855Q1.29638 5.06903 1.42257 4.85849Q1.54876 4.64795 1.68514 4.44385Q1.82151 4.23976 1.96773 4.0426Q2.11395 3.84545 2.26967 3.6557Q2.42539 3.46596 2.59023 3.28408Q2.75507 3.10221 2.92864 2.92864Q3.10221 2.75507 3.28408 2.59023Q3.46596 2.42539 3.6557 2.26967Q3.84545 2.11395 4.0426 1.96773Q4.23976 1.82151 4.44385 1.68514Q4.64795 1.54876 4.85849 1.42257Q5.06903 1.29638 5.2855 1.18067Q5.50198 1.06496 5.72388 0.960011Q5.94577 0.855062 6.17255 0.761128Q6.39932 0.667194 6.63044 0.584501Q6.86155 0.501807 7.09644 0.430553Q7.33134 0.3593 7.56944 0.299657Q7.80755 0.240015 8.04829 0.192128Q8.28904 0.144241 8.53184 0.108224Q8.77465 0.0722074 9.01893 0.0481479Q9.26321 0.0240885 9.50837 0.0120442Q9.75354 0 9.999 0L9.999 0Z" id="Rectangle" fill="#F1B674" fill-opacity="0.5019608" stroke="none" />
      <path d="M0 8C0 8 8.73853 -5.21769 8.73853 3.40304C8.34058 9.06012 13.0303 3.40304 13.0303 3.40304C13.0303 3.40304 15.8917 0.617226 16.5525 3.40304C16.5525 6.07843 15.2111 6.9273 19 5.45082" transform="translate(12 35)" id="Path-27" fill="none" stroke="#F1B674" stroke-width="2" stroke-linecap="round" />
      <path d="M0.358974 0.5L27.641 0.5" transform="translate(10 16)" id="Line-8" fill="none" stroke="#F1B674" stroke-width="2" stroke-linecap="round" />
      <path d="M0.358974 0.5L27.641 0.5" transform="translate(10 21)" id="Line-8-Copy" fill="none" stroke="#F1B674" stroke-width="2" stroke-linecap="round" />
      <path d="M0.370968 0.5L23 0.5" transform="translate(10 26)" id="Line-8-Copy-2" fill="none" stroke="#F1B674" stroke-width="2" stroke-linecap="round" />
      <path d="M17.6625 1.03124L16.6096 2.06386L1.82823 16.5603Q1.61263 16.7717 1.46912 17.0374Q1.3256 17.3031 1.26696 17.5994L0.328416 22.3409Q0.315823 22.4045 0.311561 22.4692Q0.3073 22.5339 0.311441 22.5986Q0.315583 22.6634 0.328058 22.727Q0.340534 22.7906 0.361133 22.8521Q0.381733 22.9136 0.410111 22.972Q0.438489 23.0303 0.47417 23.0844Q0.50985 23.1386 0.552233 23.1877Q0.594617 23.2368 0.642992 23.28Q0.691366 23.3232 0.744921 23.3597Q0.798475 23.3963 0.85631 23.4257Q0.914144 23.455 0.975288 23.4767Q1.03643 23.4983 1.09986 23.5118Q1.16329 23.5254 1.22793 23.5306Q1.29258 23.5358 1.35735 23.5326Q1.42213 23.5295 1.48596 23.5179Q1.54978 23.5064 1.61158 23.4867L6.19591 22.0266Q6.63954 21.8853 6.97508 21.5626L22.517 6.61227Q22.5891 6.54293 22.6539 6.46674Q22.7187 6.39056 22.7755 6.30828Q22.8324 6.22601 22.8808 6.13846Q22.9292 6.05092 22.9686 5.95899Q23.008 5.86706 23.038 5.77165Q23.068 5.67624 23.0884 5.57832Q23.1087 5.48039 23.1192 5.38092Q23.1297 5.28145 23.1301 5.18143Q23.1306 5.08142 23.1211 4.98185Q23.1116 4.88228 23.0923 4.78416Q23.0729 4.68604 23.0438 4.59034Q23.0147 4.49464 22.9762 4.40233Q22.9377 4.31001 22.8902 4.222Q22.8427 4.13399 22.7866 4.05116Q22.7306 3.96832 22.6665 3.8915Q22.6025 3.81468 22.5311 3.74464L19.7654 1.03141Q19.7134 0.980392 19.6567 0.934645Q19.6 0.888898 19.5391 0.848855Q19.4783 0.808813 19.4138 0.774852Q19.3493 0.74089 19.2819 0.713329Q19.2145 0.685768 19.1447 0.664866Q19.0749 0.643963 19.0034 0.629916Q18.9319 0.615869 18.8594 0.60881Q18.7869 0.60175 18.714 0.601745Q18.6412 0.601739 18.5686 0.608787Q18.4961 0.615834 18.4246 0.62987Q18.3531 0.643905 18.2833 0.664796Q18.2135 0.685687 18.1461 0.713238Q18.0787 0.740788 18.0142 0.774739Q17.9497 0.80869 17.8889 0.848723Q17.828 0.888755 17.7713 0.934493Q17.7146 0.980231 17.6625 1.03124L17.6625 1.03124Z" transform="translate(38 18)" id="Path-28" fill="#F1B674" stroke="none" />
    </g>
  </g>
</svg>