<?xml version="1.0" encoding="utf-8"?>
<svg width="20px" height="20px" viewBox="0 0 20 20" version="1.1" xmlns:xlink="http://www.w3.org/1999/xlink" xmlns="http://www.w3.org/2000/svg">
  <desc>Created with Lunacy</desc>
  <defs>
    <linearGradient x1="0.5" y1="0" x2="0.5" y2="1" id="gradient_1">
      <stop offset="0" stop-color="#539FB7" />
      <stop offset="1" stop-color="#B2DB9E" />
    </linearGradient>
    <path d="M7 3.499L7 4.501Q7 4.67289 6.98315 4.84396Q6.9663 5.01503 6.93277 5.18362Q6.89923 5.35221 6.84933 5.51671Q6.79943 5.6812 6.73365 5.84001Q6.66787 5.99882 6.58684 6.15042Q6.50581 6.30201 6.41031 6.44494Q6.31481 6.58786 6.20576 6.72074Q6.09671 6.85362 5.97517 6.97517Q5.85362 7.09671 5.72074 7.20576Q5.58786 7.31481 5.44494 7.41031Q5.30201 7.50581 5.15042 7.58684Q4.99882 7.66787 4.84001 7.73365Q4.6812 7.79944 4.51671 7.84933Q4.35221 7.89923 4.18362 7.93277Q4.01503 7.9663 3.84396 7.98315Q3.67289 8 3.501 8L3.499 8Q3.32711 8 3.15604 7.98315Q2.98497 7.9663 2.81638 7.93277Q2.64779 7.89923 2.48329 7.84933Q2.3188 7.79944 2.15999 7.73365Q2.00118 7.66787 1.84958 7.58684Q1.69799 7.50581 1.55506 7.41031Q1.41213 7.31481 1.27926 7.20576Q1.14638 7.09671 1.02483 6.97517Q0.903285 6.85362 0.794236 6.72074Q0.685187 6.58786 0.589688 6.44494Q0.494188 6.30201 0.413157 6.15042Q0.332127 5.99882 0.266345 5.84001Q0.200564 5.6812 0.150666 5.51671Q0.100767 5.35221 0.0672323 5.18362Q0.0336973 5.01503 0.0168486 4.84396Q0 4.67289 0 4.501L0 3.499Q0 3.32711 0.0168486 3.15604Q0.0336973 2.98497 0.0672323 2.81638Q0.100767 2.64779 0.150666 2.48329Q0.200564 2.3188 0.266345 2.15999Q0.332127 2.00118 0.413157 1.84958Q0.494188 1.69799 0.589688 1.55506Q0.685187 1.41213 0.794236 1.27926Q0.903285 1.14638 1.02483 1.02483Q1.14638 0.903285 1.27926 0.794236Q1.41213 0.685187 1.55506 0.589688Q1.69799 0.494188 1.84958 0.413157Q2.00118 0.332127 2.15999 0.266345Q2.3188 0.200564 2.48329 0.150666Q2.64779 0.100767 2.81638 0.0672323Q2.98497 0.0336973 3.15604 0.0168486Q3.32711 0 3.499 0L3.501 0Q3.67289 0 3.84396 0.0168486Q4.01503 0.0336973 4.18362 0.0672323Q4.35221 0.100767 4.51671 0.150666Q4.6812 0.200564 4.84001 0.266345Q4.99882 0.332127 5.15042 0.413157Q5.30202 0.494188 5.44494 0.589688Q5.58787 0.685187 5.72074 0.794236Q5.85362 0.903285 5.97517 1.02483Q6.09671 1.14638 6.20576 1.27926Q6.31481 1.41213 6.41031 1.55506Q6.50581 1.69799 6.58684 1.84958Q6.66787 2.00118 6.73365 2.15999Q6.79943 2.3188 6.84933 2.48329Q6.89923 2.64779 6.93277 2.81638Q6.9663 2.98497 6.98315 3.15604Q7 3.32711 7 3.499ZM12.499 0L16.501 0Q16.6729 0 16.844 0.0168486Q17.015 0.0336973 17.1836 0.0672323Q17.3522 0.100767 17.5167 0.150666Q17.6812 0.200564 17.84 0.266345Q17.9988 0.332127 18.1504 0.413157Q18.302 0.494188 18.4449 0.589688Q18.5879 0.685187 18.7207 0.794236Q18.8536 0.903285 18.9752 1.02483Q19.0967 1.14638 19.2058 1.27926Q19.3148 1.41213 19.4103 1.55506Q19.5058 1.69799 19.5868 1.84958Q19.6679 2.00118 19.7337 2.15999Q19.7994 2.3188 19.8493 2.48329Q19.8992 2.64779 19.9328 2.81638Q19.9663 2.98497 19.9832 3.15604Q20 3.32711 20 3.499L20 3.501Q20 3.67289 19.9832 3.84396Q19.9663 4.01503 19.9328 4.18362Q19.8992 4.35221 19.8493 4.51671Q19.7994 4.6812 19.7337 4.84001Q19.6679 4.99882 19.5868 5.15042Q19.5058 5.30202 19.4103 5.44494Q19.3148 5.58787 19.2058 5.72074Q19.0967 5.85362 18.9752 5.97517Q18.8536 6.09671 18.7207 6.20576Q18.5879 6.31481 18.4449 6.41031Q18.302 6.50581 18.1504 6.58684Q17.9988 6.66787 17.84 6.73365Q17.6812 6.79943 17.5167 6.84933Q17.3522 6.89923 17.1836 6.93277Q17.015 6.9663 16.844 6.98315Q16.6729 7 16.501 7L12.499 7Q12.3271 7 12.156 6.98315Q11.985 6.9663 11.8164 6.93277Q11.6478 6.89923 11.4833 6.84933Q11.3188 6.79943 11.16 6.73365Q11.0012 6.66787 10.8496 6.58684Q10.698 6.50581 10.5551 6.41031Q10.4121 6.31481 10.2793 6.20576Q10.1464 6.09671 10.0248 5.97517Q9.90329 5.85362 9.79424 5.72074Q9.68519 5.58786 9.58969 5.44494Q9.49419 5.30201 9.41316 5.15042Q9.33213 4.99882 9.26634 4.84001Q9.20056 4.6812 9.15067 4.51671Q9.10077 4.35221 9.06723 4.18362Q9.0337 4.01503 9.01685 3.84396Q9 3.67289 9 3.501L9 3.499Q9 3.32711 9.01685 3.15604Q9.0337 2.98497 9.06723 2.81638Q9.10077 2.64779 9.15067 2.48329Q9.20056 2.3188 9.26634 2.15999Q9.33213 2.00118 9.41316 1.84958Q9.49419 1.69799 9.58969 1.55506Q9.68519 1.41213 9.79424 1.27926Q9.90329 1.14638 10.0248 1.02483Q10.1464 0.903285 10.2793 0.794236Q10.4121 0.685187 10.5551 0.589688Q10.698 0.494188 10.8496 0.413157Q11.0012 0.332127 11.16 0.266345Q11.3188 0.200564 11.4833 0.150666Q11.6478 0.100767 11.8164 0.0672323Q11.985 0.0336973 12.156 0.0168486Q12.3271 0 12.499 0ZM16.001 9L14.999 9Q14.8025 9 14.607 9.01926Q14.4115 9.03851 14.2188 9.07684Q14.0262 9.11517 13.8382 9.1722Q13.6502 9.22922 13.4686 9.3044Q13.2871 9.37959 13.1139 9.4722Q12.9406 9.56481 12.7773 9.67395Q12.6139 9.7831 12.4621 9.90773Q12.3102 10.0324 12.1713 10.1713Q12.0324 10.3102 11.9077 10.4621Q11.7831 10.6139 11.674 10.7773Q11.5648 10.9406 11.4722 11.1139Q11.3796 11.2871 11.3044 11.4686Q11.2292 11.6502 11.1722 11.8382Q11.1152 12.0261 11.0768 12.2188Q11.0385 12.4115 11.0193 12.607Q11 12.8025 11 12.999L11 16.001Q11 16.1975 11.0193 16.393Q11.0385 16.5885 11.0768 16.7812Q11.1152 16.9738 11.1722 17.1618Q11.2292 17.3498 11.3044 17.5313Q11.3796 17.7129 11.4722 17.8861Q11.5648 18.0594 11.674 18.2227Q11.7831 18.3861 11.9077 18.5379Q12.0324 18.6898 12.1713 18.8287Q12.3102 18.9676 12.4621 19.0923Q12.6139 19.2169 12.7773 19.326Q12.9406 19.4352 13.1139 19.5278Q13.2871 19.6204 13.4686 19.6956Q13.6502 19.7708 13.8382 19.8278Q14.0262 19.8848 14.2188 19.9232Q14.4115 19.9615 14.607 19.9807Q14.8025 20 14.999 20L16.001 20Q16.1975 20 16.393 19.9807Q16.5885 19.9615 16.7812 19.9232Q16.9738 19.8848 17.1618 19.8278Q17.3498 19.7708 17.5313 19.6956Q17.7129 19.6204 17.8861 19.5278Q18.0594 19.4352 18.2227 19.326Q18.3861 19.2169 18.5379 19.0923Q18.6898 18.9676 18.8287 18.8287Q18.9676 18.6898 19.0923 18.5379Q19.2169 18.3861 19.326 18.2227Q19.4352 18.0594 19.5278 17.8861Q19.6204 17.7129 19.6956 17.5313Q19.7708 17.3498 19.8278 17.1618Q19.8848 16.9738 19.9232 16.7812Q19.9615 16.5885 19.9807 16.393Q20 16.1975 20 16.001L20 12.999Q20 12.8025 19.9807 12.607Q19.9615 12.4115 19.9232 12.2188Q19.8848 12.0261 19.8278 11.8382Q19.7708 11.6502 19.6956 11.4686Q19.6204 11.2871 19.5278 11.1139Q19.4352 10.9406 19.326 10.7773Q19.2169 10.6139 19.0923 10.4621Q18.9676 10.3102 18.8287 10.1713Q18.6898 10.0324 18.5379 9.90773Q18.3861 9.7831 18.2227 9.67395Q18.0594 9.56481 17.8861 9.4722Q17.7129 9.37959 17.5313 9.3044Q17.3498 9.22922 17.1618 9.1722Q16.9738 9.11517 16.7812 9.07684Q16.5885 9.03851 16.393 9.01926Q16.1975 9 16.001 9ZM9 16.001L9 13.999Q9 13.8025 8.98074 13.607Q8.96149 13.4115 8.92316 13.2188Q8.88483 13.0262 8.8278 12.8382Q8.77077 12.6502 8.69559 12.4686Q8.62041 12.2871 8.5278 12.1139Q8.43519 11.9406 8.32605 11.7773Q8.2169 11.6139 8.09227 11.4621Q7.96764 11.3102 7.82872 11.1713Q7.6898 11.0324 7.53794 10.9077Q7.38607 10.7831 7.22272 10.674Q7.05938 10.5648 6.88611 10.4722Q6.71285 10.3796 6.53135 10.3044Q6.34985 10.2292 6.16185 10.1722Q5.97385 10.1152 5.78117 10.0768Q5.58848 10.0385 5.39297 10.0193Q5.19746 10 5.001 10L3.999 10Q3.80254 10 3.60703 10.0193Q3.41152 10.0385 3.21883 10.0768Q3.02615 10.1152 2.83815 10.1722Q2.65015 10.2292 2.46865 10.3044Q2.28715 10.3796 2.11388 10.4722Q1.94062 10.5648 1.77727 10.674Q1.61393 10.7831 1.46206 10.9077Q1.3102 11.0324 1.17128 11.1713Q1.03236 11.3102 0.907731 11.4621Q0.783099 11.6139 0.673953 11.7773Q0.564807 11.9406 0.472197 12.1139Q0.379587 12.2871 0.304406 12.4686Q0.229224 12.6502 0.172196 12.8382Q0.115167 13.0262 0.0768396 13.2188Q0.0385126 13.4115 0.0192563 13.607Q0 13.8025 0 13.999L0 16.001Q0 16.1975 0.0192563 16.393Q0.0385126 16.5885 0.0768396 16.7812Q0.115167 16.9738 0.172196 17.1618Q0.229224 17.3498 0.304406 17.5313Q0.379587 17.7129 0.472197 17.8861Q0.564807 18.0594 0.673953 18.2227Q0.783099 18.3861 0.907731 18.5379Q1.03236 18.6898 1.17128 18.8287Q1.3102 18.9676 1.46206 19.0923Q1.61393 19.2169 1.77727 19.326Q1.94062 19.4352 2.11388 19.5278Q2.28715 19.6204 2.46865 19.6956Q2.65015 19.7708 2.83815 19.8278Q3.02615 19.8848 3.21883 19.9232Q3.41152 19.9615 3.60703 19.9807Q3.80254 20 3.999 20L5.001 20Q5.19746 20 5.39297 19.9807Q5.58848 19.9615 5.78117 19.9232Q5.97385 19.8848 6.16185 19.8278Q6.34985 19.7708 6.53135 19.6956Q6.71285 19.6204 6.88612 19.5278Q7.05938 19.4352 7.22272 19.326Q7.38607 19.2169 7.53794 19.0923Q7.6898 18.9676 7.82872 18.8287Q7.96764 18.6898 8.09227 18.5379Q8.2169 18.3861 8.32605 18.2227Q8.43519 18.0594 8.5278 17.8861Q8.62041 17.7129 8.69559 17.5313Q8.77077 17.3498 8.8278 17.1618Q8.88483 16.9738 8.92316 16.7812Q8.96149 16.5885 8.98074 16.393Q9 16.1975 9 16.001Z" id="path_1" />
    <clipPath id="clip_1">
      <use xlink:href="#path_1" />
    </clipPath>
  </defs>
  <g id="Dashboard-Icon">
    <g id="Dashboard-Icon">
      <g clip-path="url(#clip_1)">
        <use xlink:href="#path_1" fill="none" stroke="url(#gradient_1)" stroke-width="4" />
      </g>
    </g>
  </g>
</svg>