<?xml version="1.0" encoding="utf-8"?>
<svg width="25px" height="17px" viewBox="0 0 25 17" version="1.1" xmlns:xlink="http://www.w3.org/1999/xlink" xmlns="http://www.w3.org/2000/svg">
  <desc>Created with Lunacy</desc>
  <path d="M21.102 15.9744C21.8509 15.9616 22.5413 15.6696 23.0586 15.2164C23.1667 15.2033 23.2653 15.1479 23.3353 15.0624C23.3976 14.9863 23.4578 14.9081 23.4445 14.8074C23.7733 14.3829 23.9721 13.8769 23.983 13.3492C24.0057 9.78313 24.0057 6.21682 23.983 2.65071C23.954 1.23657 22.6095 0.0512171 21.102 0.0257747C15.0348 -0.00859156 8.96694 -0.00859156 2.89972 0.0257747C1.34785 0.0519766 0.0466789 1.28138 0.0187549 2.65071C-0.00625164 6.21682 -0.00625164 9.78332 0.0187549 13.3494C0.0477209 14.763 1.39787 15.9487 2.89972 15.9744C8.96694 16.0085 15.0348 16.0085 21.102 15.9744ZM21.0916 0.785343C21.4302 0.791039 21.7522 0.87667 22.0364 1.02078L13.9253 8.15605C12.8052 9.1295 10.9837 9.10064 9.89719 8.17902C7.19752 5.82977 4.52744 3.45243 1.84424 1.08742C2.16807 0.898315 2.54567 0.787241 2.93723 0.785153C4.95072 0.785153 6.96418 0.78137 8.97762 0.777586C13.0156 0.769998 17.0536 0.762411 21.0916 0.785343ZM22.6771 1.51294L15.5713 7.7638L22.8893 14.2087C23.0483 13.9493 23.1429 13.6539 23.1493 13.3401C23.172 9.7802 23.172 6.22016 23.1493 2.66013C23.1408 2.23843 22.9639 1.8361 22.6771 1.51294ZM0.852251 2.66011C0.86017 2.2724 1.00458 1.91089 1.23964 1.61108L8.58949 8.08371L1.2013 14.3368C0.987286 14.0427 0.859545 13.6979 0.852251 13.3398C0.827244 9.78 0.827244 6.21996 0.852251 2.66011ZM14.9713 8.2915L14.5025 8.7039C13.1092 9.91488 10.7446 9.96653 9.29213 8.70257L9.18981 8.61238L1.78516 14.8794C2.10899 15.0833 2.49576 15.2079 2.91024 15.2149C8.97058 15.2491 15.0313 15.2491 21.0917 15.2149C21.5526 15.2071 21.9942 15.0487 22.3493 14.789L14.9713 8.2915Z" transform="translate(0.25 0.25)" id="Email-Icon" fill="#27A469" fill-rule="evenodd" stroke="#27A469" stroke-width="0.5" />
</svg>