<?xml version="1.0" encoding="utf-8"?>
<svg width="23px" height="17px" viewBox="0 0 23 17" version="1.1" xmlns:xlink="http://www.w3.org/1999/xlink" xmlns="http://www.w3.org/2000/svg">
  <desc>Created with Lunacy</desc>
  <path d="M19.3137 15.9744C19.9992 15.9616 20.6311 15.6696 21.1044 15.2164C21.2034 15.2033 21.2936 15.1479 21.3577 15.0624C21.4148 14.9863 21.4699 14.9081 21.4577 14.8074C21.7586 14.3829 21.9406 13.8769 21.9505 13.3492C21.9713 9.78313 21.9713 6.21682 21.9505 2.65071C21.924 1.23657 20.6934 0.0512171 19.3137 0.0257747C13.7606 -0.00859156 8.20703 -0.00859156 2.65398 0.0257747C1.23363 0.0519766 0.0427231 1.28138 0.0171655 2.65071C-0.00572184 6.21682 -0.00572184 9.78332 0.0171655 13.3494C0.0436767 14.763 1.2794 15.9487 2.65398 15.9744C8.20703 16.0085 13.7606 16.0085 19.3137 15.9744ZM19.3042 0.78525C19.6141 0.790946 19.9088 0.876576 20.1689 1.02069L12.7452 8.15595C11.72 9.12941 10.0529 9.10055 9.05844 8.17893C6.58756 5.82968 4.14376 3.45234 1.68794 1.08733C1.98433 0.898221 2.32993 0.787148 2.68831 0.78506C4.53116 0.78506 6.37399 0.781276 8.2168 0.777493C11.9126 0.769905 15.6084 0.762318 19.3042 0.78525ZM20.7554 1.51283L14.2518 7.76368L20.9496 14.2086C21.0951 13.9492 21.1817 13.6538 21.1876 13.3399C21.2084 9.78009 21.2084 6.22005 21.1876 2.66001C21.1798 2.23831 21.0178 1.83598 20.7554 1.51283ZM0.780078 2.6602C0.787325 2.27249 0.9195 1.91098 1.13464 1.61118L7.86162 8.0838L1.09955 14.3369C0.903669 14.0428 0.786753 13.698 0.780078 13.3399C0.75719 9.78009 0.75719 6.22005 0.780078 2.6602ZM13.7025 8.29152L13.2733 8.70391C11.9981 9.9149 9.83394 9.96654 8.50456 8.70259L8.41092 8.6124L1.63378 14.8794C1.93017 15.0833 2.28416 15.2079 2.66352 15.2149C8.21027 15.2491 13.7574 15.2491 19.3042 15.2149C19.726 15.2071 20.1302 15.0488 20.4552 14.789L13.7025 8.29152Z" transform="translate(0.5 0.5)" id="Email-Icon" fill="none" fill-rule="evenodd" stroke="#F17094" stroke-width="1" />
</svg>