<?xml version="1.0" encoding="utf-8"?>
<svg width="206px" height="47px" viewBox="0 0 206 47" version="1.1" xmlns:xlink="http://www.w3.org/1999/xlink" xmlns="http://www.w3.org/2000/svg">
  <desc>Created with Lunacy</desc>
  <g id="Graph-bar" transform="translate(2 2)">
    <path d="M0.41909 0L0.41909 42.1569" transform="translate(201.1618 0)" id="Line-4-Copy-4" fill="none" stroke="#27A469" stroke-width="4" stroke-linecap="round" />
    <path d="M0.41909 0L0.41909 37.098" transform="translate(173.5021 5.058824)" id="Line-4-Copy-2" fill="none" stroke="#27A469" stroke-width="4" stroke-linecap="round" />
    <path d="M0.41909 0L0.41909 28.6667" transform="translate(145.8423 13.4902)" id="Line-4" fill="none" stroke="#27A469" stroke-width="4" stroke-linecap="round" />
    <path d="M0.41909 0L0.41909 26.9804" transform="translate(186.9129 15.17647)" id="Line-4-Copy-3" fill="none" stroke="#27A469" stroke-width="4" stroke-linecap="round" />
    <path d="M0.419086 0L0.419086 26.9804" transform="translate(118.1826 15.17647)" id="Line-4-Copy-6" fill="none" stroke="#27A469" stroke-width="4" stroke-linecap="round" />
    <path d="M0.41909 0L0.41909 16.8627" transform="translate(160.0913 25.29412)" id="Line-4-Copy" fill="none" stroke="#27A469" stroke-width="4" stroke-linecap="round" />
    <path d="M1.83933 0L1.83933 8.61874" transform="translate(74.59751 33.72549)" id="Line-4-Copy-7" fill="none" stroke="#27A469" stroke-width="4" stroke-linecap="round" />
    <path d="M1.25726 0.332145L1.83933 21.2573" transform="translate(44.42324 21.07843)" id="Line-4-Copy-11" fill="none" stroke="#E2E2E2" stroke-width="4" stroke-linecap="round" />
    <path d="M1.83933 0L1.83933 28.8391" transform="translate(89.68465 13.4902)" id="Line-4-Copy-8" fill="none" stroke="#27A469" stroke-width="4" stroke-linecap="round" />
    <path d="M0.41909 0L0.41909 16.8627" transform="translate(132.4315 25.29412)" id="Line-4-Copy-5" fill="none" stroke="#27A469" stroke-width="4" stroke-linecap="round" />
    <path d="M0.419086 0L0.419086 16.8627" transform="translate(104.7718 25.29412)" id="Line-4-Copy-9" fill="none" stroke="#27A469" stroke-width="4" stroke-linecap="round" />
    <path d="M1.83933 0L1.83933 8.61874" transform="translate(58.6722 33.72549)" id="Line-4-Copy-10" fill="none" stroke="#E2E2E2" stroke-width="4" stroke-linecap="round" />
    <path d="M1.83933 0L1.83933 8.61874" transform="translate(29.3361 33.72549)" id="Line-4-Copy-12" fill="none" stroke="#E2E2E2" stroke-width="4" stroke-linecap="round" />
    <path d="M1.25726 0.327887L1.83933 17.8932" transform="translate(14.24896 23.60784)" id="Line-4-Copy-13" fill="none" stroke="#E2E2E2" stroke-width="4" stroke-linecap="round" />
    <path d="M1.25726 0.335339L1.83933 28.8391" transform="translate(0 13.4902)" id="Line-4-Copy-14" fill="none" stroke="#E2E2E2" stroke-width="4" stroke-linecap="round" />
  </g>
</svg>