<?xml version="1.0" encoding="utf-8"?>
<svg width="21px" height="21px" viewBox="0 0 21 21" version="1.1" xmlns:xlink="http://www.w3.org/1999/xlink" xmlns="http://www.w3.org/2000/svg">
  <desc>Created with Lunacy</desc>
  <g id="Info-Icon" transform="translate(1 1)">
    <path d="M9.5 19C14.7467 19 19 14.7467 19 9.5C19 4.25329 14.7467 0 9.5 0C4.25329 0 0 4.25329 0 9.5C0 14.7467 4.25329 19 9.5 19Z" id="Oval" fill="none" stroke="#7F7F7F" stroke-width="1" />
    <path d="M0.5 0L0.5 7.65727" transform="translate(9 7)" id="Path-24" fill="none" stroke="#7F7F7F" stroke-width="2" />
    <path d="M1.25 2.5C1.94036 2.5 2.5 1.94036 2.5 1.25C2.5 0.559644 1.94036 0 1.25 0C0.559644 0 0 0.559644 0 1.25C0 1.94036 0.559644 2.5 1.25 2.5Z" transform="translate(8.300049 4)" id="Oval" fill="#7F7F7F" stroke="none" />
  </g>
</svg>