<?xml version="1.0" encoding="utf-8"?>
<svg width="20px" height="20px" viewBox="0 0 20 20" version="1.1" xmlns:xlink="http://www.w3.org/1999/xlink" xmlns="http://www.w3.org/2000/svg">
  <desc>Created with Lunacy</desc>
  <defs>
    <path d="M1.999 0L18.001 0Q18.0992 0 18.1969 0.00962573Q18.2947 0.0192515 18.391 0.0384102Q18.4873 0.057569 18.5813 0.0860763Q18.6753 0.114584 18.766 0.152165Q18.8567 0.189746 18.9433 0.236039Q19.0299 0.282333 19.1116 0.336892Q19.1932 0.391452 19.2692 0.453752Q19.3451 0.516052 19.4145 0.585494Q19.4839 0.654935 19.5462 0.730848Q19.6085 0.806761 19.6631 0.888415Q19.7177 0.970069 19.764 1.05668Q19.8103 1.14329 19.8478 1.23402Q19.8854 1.32474 19.9139 1.41872Q19.9424 1.5127 19.9616 1.60901Q19.9807 1.70533 19.9904 1.80306Q20 1.9008 20 1.999L20 18.001Q20 18.0992 19.9904 18.1969Q19.9807 18.2947 19.9616 18.391Q19.9424 18.4873 19.9139 18.5813Q19.8854 18.6753 19.8478 18.766Q19.8103 18.8567 19.764 18.9433Q19.7177 19.0299 19.6631 19.1116Q19.6085 19.1932 19.5462 19.2692Q19.4839 19.3451 19.4145 19.4145Q19.3451 19.4839 19.2692 19.5462Q19.1932 19.6085 19.1116 19.6631Q19.0299 19.7177 18.9433 19.764Q18.8567 19.8103 18.766 19.8478Q18.6753 19.8854 18.5813 19.9139Q18.4873 19.9424 18.391 19.9616Q18.2947 19.9807 18.1969 19.9904Q18.0992 20 18.001 20L1.999 20Q1.9008 20 1.80306 19.9904Q1.70533 19.9807 1.60901 19.9616Q1.5127 19.9424 1.41872 19.9139Q1.32474 19.8854 1.23402 19.8478Q1.14329 19.8103 1.05668 19.764Q0.970069 19.7177 0.888415 19.6631Q0.806761 19.6085 0.730848 19.5462Q0.654935 19.4839 0.585494 19.4145Q0.516052 19.3451 0.453752 19.2692Q0.391452 19.1932 0.336892 19.1116Q0.282333 19.0299 0.236039 18.9433Q0.189746 18.8567 0.152165 18.766Q0.114584 18.6753 0.0860763 18.5813Q0.057569 18.4873 0.0384102 18.391Q0.0192515 18.2947 0.00962573 18.1969Q0 18.0992 0 18.001L0 1.999Q0 1.9008 0.00962573 1.80306Q0.0192515 1.70533 0.0384102 1.60901Q0.057569 1.5127 0.0860763 1.41872Q0.114584 1.32474 0.152165 1.23402Q0.189746 1.14329 0.236039 1.05668Q0.282333 0.970069 0.336892 0.888415Q0.391452 0.806761 0.453752 0.730848Q0.516052 0.654935 0.585494 0.585494Q0.654935 0.516052 0.730848 0.453752Q0.806761 0.391452 0.888415 0.336892Q0.970069 0.282333 1.05668 0.236039Q1.14329 0.189746 1.23402 0.152165Q1.32474 0.114584 1.41872 0.0860763Q1.5127 0.057569 1.60901 0.0384102Q1.70533 0.0192515 1.80306 0.00962573Q1.9008 0 1.999 0L1.999 0Z" id="path_1" />
    <clipPath id="clip_1">
      <use xlink:href="#path_1" />
    </clipPath>
  </defs>
  <g id="Library-Icon">
    <g id="Library-Icon">
      <g id="Rectangle">
        <g clip-path="url(#clip_1)">
          <use xlink:href="#path_1" fill="none" stroke="#92929D" stroke-width="4" />
        </g>
      </g>
      <path d="M0.5 0L0.5 13.8111" transform="translate(4.524826 1.225422)" id="Path-13" fill="none" stroke="#92929D" stroke-width="2" />
      <path d="M0 0.5L17.9916 0.5" transform="translate(1.059815 14.53648)" id="Path-14" fill="none" stroke="#92929D" stroke-width="2" />
      <path d="M0 0.5L5 0.5" transform="translate(9.559815 10)" id="Path-15" fill="none" stroke="#92929D" stroke-width="2" stroke-linecap="round" />
      <path d="M0 0.5L3 0.5" transform="translate(9.559815 6.951475)" id="Path-16" fill="none" stroke="#92929D" stroke-width="2" stroke-linecap="round" />
    </g>
  </g>
</svg>