<?xml version="1.0" encoding="utf-8"?>
<svg width="26px" height="37px" viewBox="0 0 26 37" version="1.1" xmlns:xlink="http://www.w3.org/1999/xlink" xmlns="http://www.w3.org/2000/svg">
  <desc>Created with Lunacy</desc>
  <g id="Location-Icon" transform="translate(1 1)">
    <path d="M12.7286 33.6127C14.3447 30.9949 21.0475 20.1373 21.0475 20.1373C21.0475 20.1373 24 15.3547 24 11.7135C24 8.07237 21.0475 4.33268 21.0475 4.33268C21.0475 4.33268 17.4442 -6.21725e-14 11.8722 -6.21725e-14C6.30008 -6.21725e-14 2.8335 4.33268 2.8335 4.33268C2.8335 4.33268 0 7.53221 0 11.7135C1.75564e-16 15.8948 2.8335 20.1373 2.8335 20.1373L11.025 33.607Q11.0582 33.6615 11.098 33.7114Q11.1379 33.7613 11.1837 33.8057Q11.2296 33.8501 11.2807 33.8883Q11.3319 33.9265 11.3875 33.9579Q11.4431 33.9892 11.5022 34.0133Q11.5614 34.0373 11.6231 34.0537Q11.6848 34.07 11.7481 34.0783Q11.8114 34.0867 11.8752 34.0869Q11.9391 34.0871 12.0024 34.0792Q12.0657 34.0713 12.1276 34.0554Q12.1894 34.0394 12.2487 34.0158Q12.308 33.9921 12.3638 33.9611Q12.4196 33.9301 12.471 33.8923Q12.5224 33.8544 12.5686 33.8103Q12.6147 33.7662 12.6549 33.7166Q12.6951 33.667 12.7286 33.6127L12.7286 33.6127Z" id="Path-23" fill="#000000" stroke="none" />
    <path d="M3.42857 6.82927C5.32212 6.82927 6.85714 5.30048 6.85714 3.41463C6.85714 1.52878 5.32212 0 3.42857 0C1.53502 0 0 1.52878 0 3.41463C0 5.30048 1.53502 6.82927 3.42857 6.82927Z" transform="translate(8.571411 8.53656)" id="Oval" fill="none" stroke="#FFFFFF" stroke-width="2" />
  </g>
</svg>