<?xml version="1.0" encoding="utf-8"?>
<svg width="89px" height="88px" viewBox="0 0 89 88" version="1.1" xmlns:xlink="http://www.w3.org/1999/xlink" xmlns="http://www.w3.org/2000/svg">
  <desc>Created with Lunacy</desc>
  <g id="Payment-Icon" transform="translate(1.5 1.5)">
    <g id="$" fill="#27A469" transform="translate(29.70947 22.79077)">
      <path d="M10.8292 46.4248L10.8292 51.2988L8.49323 51.2988L8.49323 46.6045Q3.70905 46.6045 0.721745 44.6729L0.721745 40.7646Q2.02448 41.9102 4.2818 42.6851Q6.53913 43.46 8.49323 43.46L8.49323 31.96Q3.55182 29.5791 2.09186 27.5688Q0.631901 25.5586 0.631901 22.8184Q0.631901 19.5615 2.85553 17.1919Q5.07917 14.8223 8.49323 14.3506L8.49323 10.3076L10.8292 10.3076L10.8292 14.2607Q15.2315 14.3955 16.9161 15.5186L16.9161 19.3369Q14.6251 17.54 10.8292 17.4053L10.8292 29.2646Q15.501 31.4883 17.2193 33.5659Q18.9376 35.6436 18.9376 38.2939Q18.9376 41.4834 16.7925 43.6509Q14.6475 45.8184 10.8292 46.4248ZM8.49323 28.0068L8.49323 17.54Q6.60651 17.9219 5.50592 19.2134Q4.40534 20.5049 4.40534 22.3467Q4.40534 24.2783 5.30378 25.5137Q6.20221 26.749 8.49323 28.0068ZM10.8292 33.1279L10.8292 43.2803Q15.1641 42.3369 15.1641 38.6084Q15.1641 35.5088 10.8292 33.1279Z" />
    </g>
    <path d="M32.9664 65.713C33.7387 65.7112 34.5049 65.683 35.2641 65.6293C38.7701 65.3816 42.1272 64.5906 45.2504 63.3408C52.9466 60.261 59.2231 54.3951 62.8106 47.0049C63.1003 46.4082 63.3725 45.8016 63.6264 45.1856C65.2058 41.3549 66.0812 37.1654 66.0918 32.7771C66.1357 14.631 51.3761 -0.0437949 33.1254 9.82091e-05C14.8746 0.0439914 0.0438931 14.7899 -3.44183e-13 32.936" transform="matrix(0.3420202 -0.9396926 0.9396926 0.3420202 0 62.1062)" id="Oval" fill="none" stroke="#27A469" stroke-width="3" stroke-linecap="round" />
    <path d="M-2.77556e-16 -1.66533e-13L7.91725 12L20 2.0554" transform="matrix(0.9961947 0.08715574 -0.08715574 0.9961947 65.24561 43.28955)" id="Path-26" fill="none" stroke="#27A469" stroke-width="3" stroke-linecap="round" stroke-linejoin="round" />
  </g>
</svg>