<?xml version="1.0" encoding="utf-8"?>
<svg width="20px" height="18px" viewBox="0 0 20 18" version="1.1" xmlns:xlink="http://www.w3.org/1999/xlink" xmlns="http://www.w3.org/2000/svg">
  <desc>Created with Lunacy</desc>
  <defs>
    <path d="M0 0L18 0L18 13.001Q18 13.0994 17.9808 13.1959Q17.9616 13.2924 17.924 13.3833Q17.8863 13.4742 17.8316 13.556Q17.777 13.6378 17.7074 13.7074Q17.6378 13.777 17.556 13.8316Q17.4742 13.8863 17.3833 13.924Q17.2924 13.9616 17.1959 13.9808Q17.0994 14 17.001 14L0.999 14Q0.900607 14 0.804105 13.9808Q0.707602 13.9616 0.616699 13.924Q0.525796 13.8863 0.443985 13.8316Q0.362175 13.777 0.2926 13.7074Q0.223026 13.6378 0.168362 13.556Q0.113698 13.4742 0.0760443 13.3833Q0.038391 13.2924 0.0191955 13.1959Q0 13.0994 0 13.001L0 0Z" transform="translate(1 4)" id="path_1" />
    <clipPath id="clip_1">
      <use xlink:href="#path_1" />
    </clipPath>
  </defs>
  <g id="Sales-Icon">
    <g id="Sales-Icon">
      <g id="Rectangle">
        <g clip-path="url(#clip_1)">
          <use xlink:href="#path_1" fill="none" stroke="#92929D" stroke-width="4" />
        </g>
      </g>
      <path d="M0 7L0 0L4 0L4 7" transform="translate(8 10)" id="Path-7" fill="none" stroke="#92929D" stroke-width="2" />
      <path d="M4.42647 3.77371C4.42647 3.77371 4.90433 6.06757 6.53309 6.33913C8.16184 6.61068 9.23014 3.77371 9.23014 3.77371L9.8983 5.15275Q9.92918 5.21649 9.9645 5.27789Q9.99982 5.33929 10.0394 5.39804Q10.079 5.45678 10.1226 5.51258Q10.1662 5.56837 10.2137 5.62094Q10.2612 5.67351 10.3123 5.72258Q10.3633 5.77166 10.4178 5.817Q10.4722 5.86233 10.5297 5.90371Q10.5872 5.94508 10.6475 5.98228Q10.7077 6.01947 10.7705 6.05231Q10.8332 6.08515 10.8982 6.11347Q10.9631 6.14178 11.0299 6.16543Q11.0966 6.18908 11.1649 6.20794Q11.2332 6.22681 11.3026 6.24079Q11.3721 6.25477 11.4423 6.26381Q11.5126 6.27284 11.5833 6.27688Q11.654 6.28092 11.7248 6.27994Q11.7957 6.27897 11.8662 6.27298Q11.9368 6.26699 12.0068 6.25602Q12.0768 6.24506 12.1458 6.22916Q12.2148 6.21327 12.2825 6.19253Q12.3503 6.17179 12.4164 6.14631Q12.4825 6.12083 12.5466 6.09074Q12.6107 6.06065 12.6725 6.02609Q12.7344 5.99153 12.7936 5.95268Q12.8528 5.91384 12.9091 5.8709Q12.9655 5.82796 13.0186 5.78113Q13.0718 5.73431 13.1215 5.68385Q13.1712 5.63338 13.2172 5.57953Q13.2632 5.52567 13.3053 5.46869Q13.3474 5.41171 13.3853 5.3519Q13.4232 5.29209 13.4569 5.22974Q13.4905 5.16739 13.5196 5.10282C13.264 5.66967 14.1189 3.77371 14.1189 3.77371C14.1189 3.77371 15.4539 5.90473 16.537 6.04653C17.6201 6.18832 19 4.41275 19 4.41275L17.4283 -7.14059e-16L1.71168 0L1.42775 0.746449C0.639225 2.81948 -1.35003e-13 4.5 -1.35003e-13 4.5C-1.35003e-13 4.5 0.380183 6.33913 2.12053 6.33913C3.86088 6.33913 4.42647 3.77371 4.42647 3.77371Z" transform="translate(0.5972463 0)" id="Path-10" fill="none" stroke="#92929D" stroke-width="2" stroke-linejoin="round" />
    </g>
  </g>
</svg>