<?xml version="1.0" encoding="utf-8"?>
<svg width="20px" height="21px" viewBox="0 0 20 21" version="1.1" xmlns:xlink="http://www.w3.org/1999/xlink" xmlns="http://www.w3.org/2000/svg">
  <desc>Created with Lunacy</desc>
  <defs>
  <linearGradient x1="0.5" y1="0" x2="0.5" y2="1" id="gradient_1">
    <stop offset="0" stop-color="#539FB7" />
    <stop offset="1" stop-color="#B2DB9E" />
  </linearGradient>
  </defs>
  <g id="Schedule-Icon">
    <g id="Schedule-Icon">
      <path d="M3.999 16.9006L16.001 16.9006Q16.1975 16.9006 16.393 16.8813Q16.5885 16.8621 16.7812 16.8237Q16.9738 16.7854 17.1618 16.7284Q17.3498 16.6713 17.5313 16.5962Q17.7129 16.521 17.8861 16.4284Q18.0594 16.3358 18.2227 16.2266Q18.3861 16.1175 18.5379 15.9928Q18.6898 15.8682 18.8287 15.7293Q18.9676 15.5904 19.0923 15.4385Q19.2169 15.2866 19.326 15.1233Q19.4352 14.9599 19.5278 14.7867Q19.6204 14.6134 19.6956 14.4319Q19.7708 14.2504 19.8278 14.0624Q19.8848 13.8744 19.9232 13.6817Q19.9615 13.4891 19.9807 13.2935Q20 13.098 20 12.9016L20 1.999Q20 1.9008 19.9904 1.80306Q19.9807 1.70533 19.9616 1.60901Q19.9424 1.5127 19.9139 1.41872Q19.8854 1.32474 19.8478 1.23402Q19.8103 1.14329 19.764 1.05668Q19.7177 0.970069 19.6631 0.888415Q19.6085 0.806761 19.5462 0.730848Q19.4839 0.654935 19.4145 0.585494Q19.3451 0.516052 19.2692 0.453752Q19.1932 0.391452 19.1116 0.336892Q19.0299 0.282333 18.9433 0.236039Q18.8567 0.189746 18.766 0.152165Q18.6753 0.114584 18.5813 0.0860763Q18.4873 0.057569 18.391 0.0384102Q18.2947 0.0192515 18.1969 0.00962573Q18.0992 0 18.001 0L1.999 0Q1.9008 0 1.80306 0.00962573Q1.70533 0.0192515 1.60901 0.0384102Q1.5127 0.057569 1.41872 0.0860763Q1.32474 0.114584 1.23402 0.152165Q1.14329 0.189746 1.05668 0.236039Q0.970069 0.282333 0.888415 0.336892Q0.806761 0.391452 0.730848 0.453752Q0.654935 0.516052 0.585494 0.585494Q0.516052 0.654935 0.453752 0.730848Q0.391452 0.806761 0.336892 0.888415Q0.282333 0.970069 0.236039 1.05668Q0.189746 1.14329 0.152165 1.23402Q0.114584 1.32474 0.0860763 1.41872Q0.057569 1.5127 0.0384102 1.60901Q0.0192515 1.70533 0.00962573 1.80306Q0 1.9008 0 1.999L0 12.9016Q0 13.098 0.0192563 13.2935Q0.0385126 13.4891 0.0768396 13.6817Q0.115167 13.8744 0.172196 14.0624Q0.229224 14.2504 0.304406 14.4319Q0.379587 14.6134 0.472197 14.7867Q0.564807 14.9599 0.673953 15.1233Q0.783099 15.2866 0.907731 15.4385Q1.03236 15.5904 1.17128 15.7293Q1.3102 15.8682 1.46206 15.9928Q1.61393 16.1175 1.77727 16.2266Q1.94062 16.3358 2.11388 16.4284Q2.28715 16.521 2.46865 16.5962Q2.65015 16.6713 2.83815 16.7284Q3.02615 16.7854 3.21883 16.8237Q3.41152 16.8621 3.60703 16.8813Q3.80254 16.9006 3.999 16.9006Z" transform="translate(0 3.151495)" id="Path-8" fill="none" stroke="url(#gradient_1)" stroke-width="2" />
      <path d="M0.5 0L0.5 4.44387" transform="translate(4.490953 0)" id="Path-9" fill="none" stroke="#92929D" stroke-width="2" />
      <path d="M0.5 0L0.5 4.44387" transform="translate(15.63966 0)" id="Path-11" fill="none" stroke="#92929D" stroke-width="2" />
      <path d="M0 0.5L20 0.5" transform="translate(0 8.5)" id="Path-12" fill="none" stroke="#92929D" stroke-width="1" />
    </g>
  </g>
</svg>
