<?xml version="1.0" encoding="utf-8"?>
<svg width="17px" height="18px" viewBox="0 0 17 18" version="1.1" xmlns:xlink="http://www.w3.org/1999/xlink" xmlns="http://www.w3.org/2000/svg">
  <desc>Created with Lunacy</desc>
  <defs>
    <path d="M2.84715 4.0716C2.84715 4.0716 3.74261 3.15604 4.31787 2.76938C4.89313 2.38272 6.66124 1.59837 6.66124 1.59837C6.66124 1.59837 6.54707 2.01013e-16 8.02041 0C9.49375 0 9.81405 1.8 9.81405 1.8C9.81405 1.8 11.0964 2.37121 11.6858 2.76938C12.2752 3.16755 13.1764 4.0716 13.1764 4.0716C13.1764 4.0716 14.7919 3.30609 15.6582 4.4424C16.5245 5.57871 15.1949 7.2 15.1949 7.2C15.1949 7.2 15.4163 8.38772 15.4163 9C15.4163 9.61228 15.1949 10.8 15.1949 10.8C15.1949 10.8 16.4294 12.1188 15.6582 13.3542C14.887 14.5896 13.1764 14.0623 13.1764 14.0623C13.1764 14.0623 12.263 14.8854 11.6858 15.2524C11.1086 15.6193 9.81405 16.2 9.81405 16.2C9.81405 16.2 9.46165 18 8.02041 18C6.57918 18 6.22678 16.2 6.22678 16.2C6.22678 16.2 4.88377 15.6103 4.31787 15.2524C3.75198 14.8944 2.84715 14.0623 2.84715 14.0623C2.84715 14.0623 0.84588 14.6362 0.199261 13.3542C-0.447358 12.0722 1.00436 10.8 1.00436 10.8C1.00436 10.8 0.901044 9.62656 0.84588 9C0.790715 8.37344 1.00436 7.2 1.00436 7.2C1.00436 7.2 -0.361662 5.7136 0.401466 4.5773C1.16459 3.44099 2.84715 4.0716 2.84715 4.0716Z" transform="translate(0.9204393 0)" id="path_1" />
    <rect width="17" height="18" id="artboard_1" />
    <clipPath id="clip_1">
      <use xlink:href="#artboard_1" clip-rule="evenodd" />
    </clipPath>
  </defs>
  <g id="Settings-Icon" clip-path="url(#clip_1)">
    <use xlink:href="#artboard_1" stroke="none" fill="none"/>
    <g id="Settings-Icon">
      <g id="Path-17">
        <use xlink:href="#path_1" fill="none" stroke="#92929D" stroke-width="4" />
      </g>
      <path d="M3 6C4.65685 6 6 4.65685 6 3C6 1.34315 4.65685 0 3 0C1.34315 0 0 1.34315 0 3C0 4.65685 1.34315 6 3 6Z" transform="translate(5.94365 6)" id="Oval-Copy" fill="none" stroke="#92929D" stroke-width="2" />
    </g>
  </g>
</svg>
