<?xml version="1.0" encoding="utf-8"?>
<svg width="23px" height="25px" viewBox="0 0 23 25" version="1.1" xmlns:xlink="http://www.w3.org/1999/xlink" xmlns="http://www.w3.org/2000/svg">
  <desc>Created with Lunacy</desc>
  <g id="Support-Icon">
    <g id="Support-Icon" transform="translate(0.711853 0.2591553)">
      <path d="M5.29711 0.563216C4.72198 0.807374 4.03277 1.0013 3.30075 2.00668C2.89521 2.56366 2.44049 2.97233 1.99299 3.30733C0.887323 4.13505 0.572185 5.76703 1.30219 6.93951L8.08168 17.6894C9.1414 19.3811 11.5937 21.1891 13.5721 20.9224C13.6676 20.9095 13.7625 20.8929 13.8564 20.8722C14.7761 20.6689 15.4311 20.0849 16.0634 19.6764C16.5268 19.377 16.6962 18.9193 16.3986 18.4547L15.3481 16.7883L14.2091 14.6544Q14.1849 14.609 14.1561 14.5662Q14.1273 14.5235 14.0942 14.484Q14.0612 14.4445 14.0242 14.4086Q13.9873 14.3726 13.9468 14.3407Q13.9064 14.3088 13.8629 14.2812Q13.8194 14.2536 13.7733 14.2306Q13.7271 14.2077 13.6789 14.1895Q13.6307 14.1714 13.5808 14.1584Q13.531 14.1453 13.4801 14.1375Q13.4291 14.1296 13.3777 14.1271Q13.3262 14.1245 13.2748 14.1272Q13.2233 14.13 13.1724 14.138Q13.1215 14.146 13.0717 14.1592Q13.0219 14.1724 12.9737 14.1907Q12.9256 14.2089 12.8795 14.2321Q12.8335 14.2552 12.7901 14.2829L11.9912 14.7932Q11.9484 14.8205 11.9031 14.8434Q11.8578 14.8662 11.8104 14.8844Q11.763 14.9025 11.714 14.9157Q11.6651 14.929 11.615 14.9372Q11.5649 14.9454 11.5143 14.9485Q11.4636 14.9516 11.413 14.9495Q11.3623 14.9475 11.312 14.9403Q11.2618 14.9331 11.2126 14.9209Q11.1633 14.9086 11.1156 14.8915Q11.0678 14.8743 11.0221 14.8524Q10.9763 14.8305 10.933 14.8041Q10.8897 14.7777 10.8493 14.747Q10.8089 14.7163 10.7718 14.6817Q10.7347 14.6471 10.7013 14.6089Q10.6679 14.5707 10.6385 14.5293Q10.6092 14.4879 10.5842 14.4438L6.93456 8.00173Q6.90888 7.95639 6.88805 7.90862Q6.86722 7.86086 6.85147 7.81118Q6.83572 7.76151 6.82523 7.71047Q6.81473 7.65942 6.80961 7.60756Q6.80448 7.55571 6.80478 7.5036Q6.80508 7.45149 6.8108 7.39969Q6.81651 7.3479 6.82759 7.29698Q6.83866 7.24606 6.85498 7.19657Q6.87129 7.14707 6.89266 7.09955Q6.91404 7.05202 6.94024 7.00698Q6.96644 6.96194 6.99719 6.91986Q7.02793 6.87779 7.06289 6.83914Q7.09785 6.8005 7.13664 6.7657Q7.17542 6.7309 7.21762 6.70032Q7.25982 6.66975 7.30497 6.64373Q7.35012 6.61771 7.39773 6.59653L7.86232 6.38987Q7.9321 6.35883 7.99829 6.32074Q8.06448 6.28265 8.12637 6.23791Q8.18826 6.19318 8.24519 6.14228Q8.30212 6.09139 8.35348 6.03487Q8.40485 5.97836 8.45008 5.91684Q8.49532 5.85531 8.53395 5.78944Q8.57258 5.72357 8.60419 5.65405Q8.6358 5.58453 8.66005 5.51212Q8.68429 5.4397 8.70092 5.36517Q8.71754 5.29063 8.72637 5.21478Q8.73519 5.13893 8.73612 5.06256Q8.73705 4.98621 8.73007 4.91016Q8.7231 4.83411 8.70829 4.75919Q8.69349 4.68428 8.67101 4.6113Q8.64853 4.53831 8.61863 4.46805Q8.58872 4.39778 8.5517 4.33099L7.47019 2.37944L6.58558 0.876609C6.29011 0.410665 5.80497 0.347615 5.29711 0.563216Z" transform="matrix(0.9702957 -0.2419219 0.2419219 0.9702957 0 4.105469)" id="Path-18" fill="none" stroke="#92929D" stroke-width="2" />
      <path d="M0 0C0 0 2.23861 1.03117 1.97153 3" transform="matrix(0.9876884 -0.1564345 0.1564345 0.9876884 13.25861 8.484009)" id="Path-19" fill="none" stroke="#92929D" stroke-width="2" stroke-linecap="round" />
      <path d="M0 0C0 0 3.33728 1.86407 2.96208 6" transform="matrix(0.9396926 -0.3420201 0.3420201 0.9396926 13.54535 6.003052)" id="Path-20" fill="none" stroke="#92929D" stroke-width="2" stroke-linecap="round" />
      <path d="M9.78961e-13 1.85838e-12C9.78961e-13 1.85838e-12 7.13238 2.03029 6.87464 9.34087" transform="matrix(0.9902681 -0.1391731 0.1391731 0.9902681 13.021 3.348022)" id="Path-21" fill="none" stroke="#92929D" stroke-width="2" stroke-linecap="round" />
    </g>
  </g>
</svg>
